<svg class="svg-image" role="img" style="width:inherit;height:inherit;line-height:inherit;color:inherit;" xmlns="http://www.w3.org/2000/svg" viewBox="0 0 200 200"><path d="M155 160H45c-8.271 0-15-6.729-15-15V75c0-8.271 6.729-15 15-15h25v-7.875C70 47.596 73.897 40 100 40s30 7.596 30 12.125V60h25c8.271 0 15 6.729 15 15v70c0 8.271-6.729 15-15 15zM45 70c-2.757 0-5 2.243-5 5v70c0 2.757 2.243 5 5 5h110c2.757 0 5-2.243 5-5V75c0-2.757-2.243-5-5-5H45zm35-10h40v-6.9c-1.98-1.23-8.934-3.1-20-3.1s-18.02 1.869-20 3.1V60zm65 50H55a5 5 0 1 1 0-10h5V85a5 5 0 0 1 10 0v15h10v-5a5 5 0 0 1 10 0v5h55c2.762 0 5 2.238 5 5s-2.238 5-5 5z" fill="#fbc02d"></path></svg>