<?xml version="1.0" standalone="no"?>
<!DOCTYPE svg PUBLIC "-//W3C//DTD SVG 20010904//EN"
 "http://www.w3.org/TR/2001/REC-SVG-20010904/DTD/svg10.dtd">
<svg version="1.0" xmlns="http://www.w3.org/2000/svg"
 width="512.000000pt" height="512.000000pt" viewBox="0 0 512.000000 512.000000"
 preserveAspectRatio="xMidYMid meet">

<g transform="translate(0.000000,512.000000) scale(0.100000,-0.100000)"
fill="#fbc02d" stroke="none">
<path d="M2438 5110 c-256 -47 -465 -200 -578 -425 -64 -126 -83 -222 -78
-379 4 -106 10 -146 31 -211 52 -159 164 -310 295 -400 l70 -47 4 -120 c4
-111 6 -122 27 -139 29 -24 72 -24 101 -1 19 15 23 31 27 106 6 83 7 87 27 81
12 -3 60 -11 108 -17 84 -12 213 -3 286 18 l22 6 0 -636 c0 -720 5 -676 -81
-749 -82 -71 -196 -71 -278 0 -78 67 -75 47 -81 525 -5 424 -5 428 -27 449
-29 29 -77 29 -106 1 -19 -20 -22 -35 -25 -131 l-4 -109 -352 -5 c-381 -4
-399 -7 -532 -67 -95 -43 -173 -100 -258 -190 -61 -66 -87 -104 -126 -184 -87
-181 -85 -154 -85 -1021 0 -869 -3 -839 87 -1024 45 -93 61 -115 147 -200 110
-110 184 -157 321 -204 l95 -32 1085 0 1085 0 95 32 c137 47 211 94 321 203
82 82 103 109 143 190 25 52 56 131 68 175 22 79 22 87 23 850 0 879 2 849
-85 1031 -78 161 -221 300 -384 374 -133 60 -151 63 -533 67 l-353 5 0 357 0
358 58 38 c125 82 272 268 272 342 0 55 -51 88 -104 67 -9 -4 -35 -38 -58 -77
-76 -130 -200 -231 -350 -284 -64 -23 -89 -27 -198 -27 -104 0 -136 4 -190 23
-158 55 -296 170 -367 307 -56 107 -73 180 -73 305 0 107 12 158 24 103 10
-43 75 -156 126 -216 133 -160 293 -239 482 -239 164 0 307 62 432 188 66 66
129 160 161 238 24 61 35 56 35 -18 0 -56 15 -106 37 -123 26 -20 66 -17 91 6
19 18 22 32 22 94 0 200 -114 429 -283 566 -72 59 -216 133 -302 155 -72 19
-251 27 -317 15z m319 -173 c196 -67 286 -171 287 -328 1 -70 -3 -83 -43 -165
-56 -114 -157 -219 -252 -264 -237 -111 -505 2 -632 267 -35 74 -40 94 -41
157 0 62 4 82 32 139 19 37 49 80 70 97 51 43 169 98 244 115 93 22 244 13
335 -18z m-909 -2169 c-3 -8 -33 -15 -79 -19 -105 -8 -170 -32 -232 -88 -28
-26 -72 -55 -97 -65 -142 -55 -251 -176 -298 -331 -13 -42 -16 -156 -19 -728
-5 -777 -2 -838 51 -951 64 -138 196 -244 344 -275 36 -7 273 -11 726 -11 663
0 673 0 694 20 29 28 30 82 0 109 -21 20 -36 21 -712 23 l-691 3 -67 33 c-73
36 -124 87 -160 161 l-23 46 0 770 0 770 24 49 c13 26 42 67 65 90 l41 41 5
-610 c6 -665 4 -641 65 -734 30 -45 68 -76 135 -112 l45 -24 895 0 895 0 45
24 c67 36 105 67 135 112 61 93 59 69 65 734 l5 610 41 -41 c23 -23 52 -64 65
-90 l24 -49 0 -770 0 -770 -23 -46 c-36 -74 -87 -125 -160 -161 l-66 -33 -209
-5 c-205 -5 -209 -5 -228 -29 -26 -32 -24 -67 6 -96 24 -25 26 -25 209 -25
102 0 209 5 238 11 176 37 310 162 374 349 18 52 19 96 19 795 0 598 -3 751
-14 795 -40 158 -154 289 -301 346 -25 10 -69 39 -97 65 -62 56 -127 80 -232
88 -46 4 -76 11 -79 19 -6 18 272 16 363 -3 39 -8 108 -33 155 -56 158 -78
292 -242 335 -414 22 -89 22 -1571 0 -1660 -43 -172 -177 -336 -335 -414 -150
-73 -106 -71 -1230 -71 -1124 0 -1080 -2 -1230 71 -158 78 -292 242 -335 414
-22 89 -22 1571 0 1660 43 172 177 336 335 414 47 23 114 48 150 55 87 19 373
21 368 4z m332 -180 c1 -233 10 -312 45 -383 72 -147 244 -235 399 -205 167
33 285 159 307 327 4 37 8 155 9 261 l0 192 48 0 c59 0 110 -25 139 -69 l23
-34 0 -462 0 -462 -23 -34 c-46 -70 -37 -69 -567 -69 -530 0 -521 -1 -567 69
l-23 34 0 462 0 462 23 34 c29 44 80 69 140 69 l47 0 0 -192z m-360 -416 c0
-500 -1 -493 89 -582 92 -92 80 -90 651 -90 571 0 559 -2 651 90 90 89 89 82
89 582 l0 428 38 0 c82 0 156 -39 187 -101 22 -41 22 -1276 1 -1317 -19 -36
-65 -78 -99 -91 -39 -15 -1695 -15 -1734 0 -34 13 -80 55 -99 91 -21 40 -21
1276 0 1316 32 62 102 101 184 102 l42 0 0 -428z"/>
<path d="M2254 4759 c-16 -17 -19 -40 -22 -133 -4 -133 9 -186 51 -200 47 -17
80 2 96 57 14 46 15 47 56 47 41 0 42 -1 56 -47 11 -37 20 -50 42 -57 47 -17
80 2 96 57 14 46 15 47 56 47 41 0 42 -1 56 -47 16 -55 49 -74 97 -57 41 14
54 67 50 200 -4 131 -15 154 -78 154 -43 0 -65 -20 -75 -67 -6 -31 -9 -33 -50
-33 -41 0 -44 2 -50 33 -10 47 -32 67 -75 67 -43 0 -65 -20 -75 -67 -6 -31 -9
-33 -50 -33 -41 0 -44 2 -50 33 -10 47 -32 67 -75 67 -25 0 -43 -7 -56 -21z"/>
</g>
</svg>
