<?xml version="1.0" standalone="no"?>
<!DOCTYPE svg PUBLIC "-//W3C//DTD SVG 20010904//EN"
 "http://www.w3.org/TR/2001/REC-SVG-20010904/DTD/svg10.dtd">
<svg version="1.0" xmlns="http://www.w3.org/2000/svg"
 width="512.000000pt" height="512.000000pt" viewBox="0 0 512.000000 512.000000"
 preserveAspectRatio="xMidYMid meet">

<g transform="translate(0.000000,512.000000) scale(0.100000,-0.100000)"
fill="#fbc02d" stroke="none">
<path d="M265 4295 c-25 -24 -25 -24 -25 -240 l0 -215 -87 0 c-51 0 -99 -6
-113 -13 -54 -27 -49 -108 9 -130 l29 -11 4 -210 c4 -205 5 -213 32 -281 57
-139 156 -233 291 -279 l70 -24 6 -433 c5 -407 7 -439 27 -514 63 -228 206
-418 403 -536 130 -78 252 -112 439 -125 l106 -6 22 -39 c23 -40 94 -99 118
-99 7 0 16 -15 20 -33 22 -102 121 -223 218 -265 151 -67 316 -39 437 75 48
45 109 148 109 185 0 17 33 18 900 18 754 0 900 -2 900 -14 0 -7 16 -45 35
-84 120 -239 438 -290 627 -101 48 48 91 121 103 177 5 24 16 37 45 52 51 26
105 91 120 144 8 29 10 120 8 297 -3 235 -5 258 -26 310 -30 75 -83 141 -148
184 -96 64 -117 67 -449 72 l-300 5 -165 221 c-91 122 -180 238 -198 259 -45
50 -124 100 -202 129 l-65 24 -877 0 -877 0 -22 -22 c-30 -29 -30 -80 0 -104
l22 -18 -93 -249 -93 -248 -49 -25 c-63 -30 -111 -92 -125 -159 -6 -29 -11
-157 -11 -297 l0 -245 -97 7 c-54 4 -131 16 -171 26 -206 52 -400 220 -482
417 -56 132 -61 187 -58 620 l3 393 65 22 c160 54 268 166 312 326 15 53 18
102 18 258 0 156 3 193 14 193 7 0 25 9 40 21 34 27 35 71 1 104 -22 23 -32
25 -120 25 l-95 0 0 215 c0 216 0 216 -25 240 -29 30 -64 32 -96 6 -24 -19
-24 -22 -27 -240 l-3 -221 -165 0 -164 0 0 215 c0 216 0 216 -25 240 -13 14
-36 25 -50 25 -14 0 -37 -11 -50 -25z m615 -791 c0 -114 -5 -203 -12 -228 -30
-104 -129 -201 -231 -227 -148 -37 -309 41 -376 181 -25 53 -26 63 -29 258
l-4 202 326 0 326 0 0 -186z m1360 -1098 l0 -243 -56 -6 c-69 -7 -94 -27 -94
-77 0 -76 -118 -69 1361 -72 1228 -3 1327 -4 1362 -20 21 -10 50 -27 64 -38
28 -22 73 -83 73 -98 0 -5 -22 -12 -50 -16 -57 -8 -90 -36 -90 -75 1 -51 49
-81 127 -81 l33 0 0 -172 c0 -95 -4 -180 -10 -188 -11 -18 -10 -19 -44 52 -83
175 -297 262 -481 197 -115 -40 -191 -115 -240 -234 l-24 -60 -891 0 -891 0
-18 52 c-34 100 -110 183 -211 232 -49 23 -67 26 -160 26 -93 0 -112 -3 -162
-27 -79 -37 -152 -108 -190 -185 -22 -46 -34 -61 -42 -53 -7 7 -12 109 -14
305 -3 339 0 356 65 374 21 6 77 11 126 11 99 0 127 15 127 70 0 40 -30 68
-80 76 -33 5 -40 10 -35 23 4 9 42 111 85 226 43 116 81 218 85 228 6 15 23
17 141 17 l134 0 0 -244z m808 -3 l2 -243 -330 0 -330 0 0 238 c0 131 3 242 7
245 4 4 151 6 327 5 l321 -3 3 -242z m565 213 c77 -37 102 -64 262 -276 l135
-180 -405 0 -405 0 0 246 0 246 178 -4 c169 -4 180 -6 235 -32z m-1513 -1197
c60 -27 88 -54 116 -114 43 -91 29 -193 -36 -268 -90 -102 -244 -109 -346 -15
-105 97 -104 264 3 358 25 22 60 44 77 49 56 16 138 12 186 -10z m2558 5 c80
-33 152 -137 152 -220 0 -137 -109 -247 -244 -246 -33 0 -72 5 -86 10 -56 22
-108 71 -135 127 -24 48 -27 64 -23 118 3 35 13 77 21 94 23 44 75 93 122 114
50 23 142 25 193 3z"/>
<path d="M2510 1570 c-27 -27 -26 -81 1 -106 20 -18 48 -19 770 -19 l748 0 22
22 c27 27 29 75 4 103 -18 20 -29 20 -772 20 -740 0 -753 0 -773 -20z"/>
<path d="M1951 1252 c-30 -23 -31 -76 -3 -104 45 -46 122 -12 122 53 0 59 -72
90 -119 51z"/>
<path d="M4512 1247 c-37 -39 -27 -92 21 -112 39 -16 80 -3 96 31 16 35 14 47
-10 78 -27 34 -77 36 -107 3z"/>
</g>
</svg>
