<?xml version="1.0" standalone="no"?>
<!DOCTYPE svg PUBLIC "-//W3C//DTD SVG 20010904//EN"
 "http://www.w3.org/TR/2001/REC-SVG-20010904/DTD/svg10.dtd">
<svg version="1.0" xmlns="http://www.w3.org/2000/svg"
 width="512.000000pt" height="512.000000pt" viewBox="0 0 512.000000 512.000000"
 preserveAspectRatio="xMidYMid meet">

<g transform="translate(0.000000,512.000000) scale(0.100000,-0.100000)"
fill="#fbc02d" stroke="none">
<path d="M750 5104 c-106 -28 -197 -98 -253 -195 -43 -73 -57 -148 -57 -307 0
-138 1 -144 25 -167 29 -30 64 -32 96 -6 23 18 24 26 30 183 4 132 9 170 24
198 33 63 64 96 117 126 l53 29 1775 0 1775 0 41 -22 c53 -28 99 -74 127 -127
l22 -41 0 -2215 0 -2215 -22 -41 c-28 -53 -74 -99 -127 -127 l-41 -22 -1775 0
-1775 0 -41 22 c-53 28 -99 74 -127 127 l-22 41 -5 1913 -5 1914 -24 19 c-32
26 -67 24 -97 -6 l-24 -24 2 -1918 3 -1918 22 -55 c31 -75 106 -165 173 -206
113 -69 -13 -65 1946 -62 l1769 3 52 21 c114 47 212 148 250 257 17 49 18 161
18 2282 l0 2230 -22 55 c-31 75 -106 165 -173 206 -112 68 11 64 -1925 63
-1507 0 -1758 -2 -1805 -15z"/>
<path d="M1960 4805 c-114 -32 -207 -112 -262 -223 l-33 -67 -5 -339 -5 -340
-50 -29 c-237 -139 -398 -387 -436 -672 -44 -333 124 -686 414 -869 l77 -49 0
-787 c0 -876 -3 -839 69 -946 46 -68 118 -127 193 -157 75 -30 221 -30 296 0
102 41 194 132 234 233 20 50 23 76 26 277 3 213 3 222 -17 242 -31 31 -84 28
-110 -5 -20 -25 -21 -40 -21 -223 0 -175 -3 -201 -21 -241 -25 -55 -71 -105
-124 -133 -57 -31 -173 -30 -231 0 -54 29 -117 101 -132 151 -9 29 -12 243
-12 786 l0 747 23 -7 c44 -14 93 -24 124 -24 l32 0 3 -726 3 -726 24 -19 c28
-22 69 -25 97 -5 18 14 19 36 24 742 l5 728 71 12 c38 6 80 15 92 18 l22 7 0
-400 0 -400 23 -25 c32 -36 74 -39 107 -6 19 19 20 33 20 454 l0 433 61 38
c184 113 319 285 388 491 133 398 -35 851 -394 1061 l-50 29 -5 335 c-5 316
-6 337 -27 389 -41 101 -135 193 -235 232 -70 27 -187 32 -258 13z m225 -163
c52 -27 99 -76 124 -132 19 -42 21 -65 21 -328 0 -279 0 -283 -20 -277 -11 3
-53 12 -92 18 l-73 13 -5 258 c-5 240 -6 259 -24 272 -28 20 -69 17 -97 -5
-24 -19 -24 -20 -27 -273 l-3 -255 -73 -11 c-39 -6 -80 -14 -89 -18 -16 -6
-17 15 -17 271 0 184 4 291 12 317 21 69 98 143 178 169 41 14 142 3 185 -19z
m65 -878 c36 -8 108 -36 160 -61 81 -40 109 -61 191 -142 81 -82 102 -110 142
-191 61 -125 80 -207 80 -345 -1 -230 -98 -436 -273 -581 -66 -54 -212 -128
-294 -149 -372 -94 -765 113 -896 473 -74 204 -63 399 34 597 110 223 319 375
571 414 73 12 198 5 285 -15z"/>
<path d="M1995 3674 c-11 -2 -45 -9 -75 -15 -30 -6 -93 -29 -139 -51 -118 -56
-230 -168 -290 -288 -94 -192 -94 -387 0 -580 59 -119 170 -230 289 -289 193
-94 388 -94 580 0 120 60 231 171 288 290 52 107 77 226 68 326 -12 146 -36
193 -98 193 -35 0 -68 -32 -68 -65 0 -13 5 -56 12 -95 25 -146 -32 -314 -145
-424 -200 -196 -500 -194 -698 3 -171 171 -196 424 -62 629 102 154 300 241
483 213 75 -12 179 -53 227 -91 37 -29 87 -26 112 6 39 50 22 86 -67 142 -88
56 -201 91 -311 97 -47 2 -95 2 -106 -1z"/>
<path d="M1962 3344 c-29 -14 -64 -41 -77 -58 -49 -64 -55 -102 -55 -331 0
-200 1 -214 21 -239 26 -33 79 -36 109 -6 18 18 20 33 20 130 l0 110 90 0 90
0 0 -110 c0 -97 2 -112 20 -130 30 -30 83 -27 110 7 21 26 21 35 18 253 -3
197 -5 230 -22 263 -61 123 -203 172 -324 111z m173 -155 c17 -21 25 -41 23
-58 -3 -26 -4 -26 -90 -29 l-88 -3 0 30 c0 17 11 42 26 60 37 44 91 44 129 0z"/>
<path d="M3256 4599 l-26 -20 0 -309 c0 -288 1 -309 19 -331 l19 -24 322 0
322 0 24 28 24 28 0 300 0 300 -25 24 -24 25 -314 0 c-303 0 -315 -1 -341 -21z
m552 -331 l-3 -203 -212 -3 -213 -2 0 205 0 205 215 0 215 0 -2 -202z"/>
<path d="M3250 3360 c-19 -19 -20 -33 -20 -330 0 -297 1 -311 20 -330 19 -19
33 -20 344 -20 l325 0 20 26 c20 26 21 38 21 326 l0 299 -25 24 -24 25 -321 0
c-307 0 -321 -1 -340 -20z m560 -330 l0 -200 -215 0 -215 0 0 200 0 200 215 0
215 0 0 -200z"/>
<path d="M3250 2270 c-19 -19 -20 -33 -20 -330 0 -297 1 -311 20 -330 19 -19
33 -20 340 -20 l321 0 24 25 25 24 0 299 c0 288 -1 300 -21 326 l-20 26 -325
0 c-311 0 -325 -1 -344 -20z m560 -330 l0 -200 -215 0 -215 0 0 200 0 200 215
0 215 0 0 -200z"/>
<path d="M3273 1200 c-12 -5 -26 -18 -32 -29 -7 -13 -11 -128 -11 -325 l0
-305 26 -20 c26 -20 38 -21 341 -21 l314 0 24 25 25 24 0 300 0 300 -24 28
-24 28 -309 2 c-169 1 -318 -2 -330 -7z m535 -347 l2 -203 -215 0 -215 0 0
205 0 205 213 -2 212 -3 3 -202z"/>
</g>
</svg>
