<svg class="svg-image" role="img" style="width:inherit;height:inherit;line-height:inherit;color:inherit;" xmlns="http://www.w3.org/2000/svg" viewBox="0 0 200 200"><path d="M165 170H35c-2.8 0-5-2.2-5-5c0-39.5-3.3-82.6-8.3-117.7c-1.3-9.2 6.1-17.4 15.4-17.1c33.2 1.3 61.8 7.7 85 19.1c21 10.3 37.2 24.8 46.8 41.8c13.6 24 13.8 51.8.4 76.3c-.8 1.6-2.5 2.6-4.3 2.6zM40 160h122c8-16.1 9.4-33.6 4.4-50H38.1c1 15.3 1.8 32.3 1.9 50zm106.7-60h15.6c-4.6-9.5-10.7-16.5-15.3-21.2c-23-23-61.8-36.8-110.2-38.6c-3-.1-5.6 2.5-5.2 5.7c.6 4.6 1.5 11.1 2.4 19.2c47.9 1.4 86.7 13.4 112.7 34.9zm-109.3 0h92.3c-23.6-15.1-55.8-23.6-94.6-24.9c.8 7.5 1.6 15.8 2.3 24.9zM75 130H55c-2.8 0-5-2.2-5-5s2.2-5 5-5h20c2.8 0 5 2.2 5 5s-2.2 5-5 5z" fill="#fbc02d"></path></svg>